<svg xmlns="http://www.w3.org/2000/svg" xmlns:xlink="http://www.w3.org/1999/xlink" width="500" zoomAndPan="magnify" viewBox="0 0 375 374.999991" height="500" preserveAspectRatio="xMidYMid meet" version="1.0"><defs><g/><clipPath id="c4585b9da7"><path d="M 80.9375 89.019531 L 294.0625 89.019531 L 294.0625 302.140625 L 80.9375 302.140625 Z M 80.9375 89.019531 " clip-rule="nonzero"/></clipPath><clipPath id="a7d0dcc173"><path d="M 187.5 89.019531 L 294.0625 195.578125 L 187.5 302.140625 L 80.9375 195.578125 L 187.5 89.019531 " clip-rule="nonzero"/></clipPath><clipPath id="1dee9e22ff"><path d="M 80.9375 89.019531 L 293.9375 89.019531 L 293.9375 302.019531 L 80.9375 302.019531 Z M 80.9375 89.019531 " clip-rule="nonzero"/></clipPath><clipPath id="89d0faf8f3"><path d="M 187.4375 89.019531 L 293.9375 195.519531 L 187.4375 302.019531 L 80.9375 195.519531 L 187.4375 89.019531 " clip-rule="nonzero"/></clipPath><clipPath id="81b1f31da6"><path d="M 211.800781 155.261719 L 236.375 155.261719 L 236.375 179.835938 L 211.800781 179.835938 Z M 211.800781 155.261719 " clip-rule="nonzero"/></clipPath><clipPath id="968ce114fc"><path d="M 224.089844 155.261719 C 217.304688 155.261719 211.800781 160.761719 211.800781 167.546875 C 211.800781 174.332031 217.304688 179.835938 224.089844 179.835938 C 230.875 179.835938 236.375 174.332031 236.375 167.546875 C 236.375 160.761719 230.875 155.261719 224.089844 155.261719 " clip-rule="nonzero"/></clipPath></defs><g clip-path="url(#c4585b9da7)"><g clip-path="url(#a7d0dcc173)"><path fill="#152342" d="M 80.9375 89.019531 L 294.0625 89.019531 L 294.0625 302.140625 L 80.9375 302.140625 Z M 80.9375 89.019531 " fill-opacity="1" fill-rule="nonzero"/></g></g><g clip-path="url(#1dee9e22ff)"><g clip-path="url(#89d0faf8f3)"><path stroke-linecap="butt" transform="matrix(0.749588, 0, 0, 0.749588, 80.93805, 89.017969)" fill="none" stroke-linejoin="miter" d="M 142.077407 0.00208367 L 284.155548 142.080225 L 142.077407 284.158366 L -0.000734251 142.080225 L 142.077407 0.00208367 " stroke="#ffffff" stroke-width="18" stroke-opacity="1" stroke-miterlimit="4"/></g></g><g fill="#ffffff" fill-opacity="1"><g transform="translate(158.714116, 262.926417)"><g><path d="M 43.808594 -78.054688 C 18.550781 -78.054688 3.710938 -61.789062 3.710938 -38.101562 C 3.710938 -14.414062 18.550781 1.996094 43.808594 1.996094 C 68.921875 1.996094 83.90625 -14.414062 83.90625 -38.101562 C 83.90625 -61.789062 68.921875 -78.054688 43.808594 -78.054688 Z M 43.808594 -13.414062 C 33.105469 -13.414062 26.683594 -22.261719 26.683594 -38.101562 C 26.683594 -53.941406 33.105469 -62.644531 43.808594 -62.644531 C 54.367188 -62.644531 60.789062 -53.941406 60.789062 -38.101562 C 60.789062 -22.261719 54.367188 -13.414062 43.808594 -13.414062 Z M 43.808594 -13.414062 "/></g></g></g><g clip-path="url(#81b1f31da6)"><g clip-path="url(#968ce114fc)"><path fill="#ad8330" d="M 211.800781 155.261719 L 236.375 155.261719 L 236.375 179.835938 L 211.800781 179.835938 Z M 211.800781 155.261719 " fill-opacity="1" fill-rule="nonzero"/></g></g><g fill="#ffffff" fill-opacity="1"><g transform="translate(120.881159, 207.410062)"><g><path d="M 78.386719 -96.238281 L 56.488281 -96.238281 L 56.488281 -37.660156 C 56.488281 -34.171875 56.488281 -31.101562 56.210938 -27.894531 C 55.511719 -19.386719 51.46875 -14.226562 43.378906 -14.226562 C 35.148438 -14.226562 29.847656 -18.550781 29.011719 -31.242188 L 28.730469 -35.847656 L 6.972656 -35.847656 L 7.113281 -31.242188 C 7.671875 -11.019531 18.410156 1.953125 42.402344 1.953125 C 66.25 1.953125 76.992188 -9.902344 77.96875 -26.640625 C 78.386719 -33.195312 78.386719 -36.265625 78.386719 -40.449219 Z M 78.386719 -96.238281 "/></g></g></g></svg>